PathFileType	4	(X/Y/Z)	C:\Users\Basilio\Documents\Thesis Gigler\squatting_fais\c3dfiles\075\SJ_pre1\markers_experimental.trc
DataRate	CameraRate	NumFrames	NumMarkers	Units	OrigDataRate	OrigDataStartFrame	OrigNumFrames
200.000000	200.000000	4	61	mm	200.000000	1231	1642
Frame#	Time	FHD			LBHD			C7			T10			CLAV			LSHO			LUUPA			LMUPA			LDUPA			LLEP			LMEP			LRAD			LUL			LRFIN			RSHO			RUPA1			RMUPA			RDUPA			RLEP			RMEP			RRAD			RUL			RUFIN			LASI			RASI			USACR			LSACR			RSACR			LTHI1			LTHI2			LTHI3			LTHI4			LLFC			LMFC			LTIB1			LTIB2			LTIB3			LTIB4			LLMAL			LMMAL			LHEE			LMT1			LMT2			LMT5			RTHI			RTHI2			RTHI3			RTHI4			RLFC			RMFC			RTIB1			RTIB2			RTIB3			RTIB4			RLMAL			RMMAL			RHEE			RMT1			RMT2			RMT5			RBHD			
		X1	Y1	Z1	X2	Y2	Z2	X3	Y3	Z3	X4	Y4	Z4	X5	Y5	Z5	X6	Y6	Z6	X7	Y7	Z7	X8	Y8	Z8	X9	Y9	Z9	X10	Y10	Z10	X11	Y11	Z11	X12	Y12	Z12	X13	Y13	Z13	X14	Y14	Z14	X15	Y15	Z15	X16	Y16	Z16	X17	Y17	Z17	X18	Y18	Z18	X19	Y19	Z19	X20	Y20	Z20	X21	Y21	Z21	X22	Y22	Z22	X23	Y23	Z23	X24	Y24	Z24	X25	Y25	Z25	X26	Y26	Z26	X27	Y27	Z27	X28	Y28	Z28	X29	Y29	Z29	X30	Y30	Z30	X31	Y31	Z31	X32	Y32	Z32	X33	Y33	Z33	X34	Y34	Z34	X35	Y35	Z35	X36	Y36	Z36	X37	Y37	Z37	X38	Y38	Z38	X39	Y39	Z39	X40	Y40	Z40	X41	Y41	Z41	X42	Y42	Z42	X43	Y43	Z43	X44	Y44	Z44	X45	Y45	Z45	X46	Y46	Z46	X47	Y47	Z47	X48	Y48	Z48	X49	Y49	Z49	X50	Y50	Z50	X51	Y51	Z51	X52	Y52	Z52	X53	Y53	Z53	X54	Y54	Z54	X55	Y55	Z55	X56	Y56	Z56	X57	Y57	Z57	X58	Y58	Z58	X59	Y59	Z59	X60	Y60	Z60	X61	Y61	Z61	

1232	6.155	-169.3301086425782	1559.6416015625	-898.401794433594	-335.6388854980469	1473.635009765625	-968.8698730468752	-391.160125732422	1373.924194335938	-907.504821777344	-517.4692993164064	1078.390502929688	-904.8471679687502	-260.5731811523438	1279.674926757813	-903.2576293945315	-273.0535888671876	1329.410888671875	-1059.962158203125	-339.2134399414063	1197.231323242188	-1232.764282226563	-323.8957824707032	1151.586547851563	-1217.701416015625	-353.4670715332032	1139.082885742188	-1269.855102539063	-380.6109313964844	1056.346557617188	-1291.988647460938	-463.1304321289064	1083.831787109375	-1262.306274414063	-465.2825012207032	894.8265380859377	-1117.995361328125	-433.646209716797	843.5622558593752	-1163.705200195313	-432.8887329101564	865.7294921875002	-1068.363647460938	-285.2766113281251	1326.999633789063	-746.5888671875001	-359.4398498535157	1199.692138671875	-580.6605224609376	-346.2169799804688	1151.7392578125	-588.8783569335939	-381.5167236328126	1145.078735351563	-540.1566162109376	-403.2385253906251	1077.877319335938	-515.7601318359376	-486.240447998047	1080.866455078125	-535.6246337890626	-457.3476867675782	890.7061767578127	-697.5277709960939	-416.031707763672	850.738220214844	-646.9736328125001	-408.3097229003907	873.1008300781252	-746.4616088867189	-430.1174316406251	853.102478027344	-1023.994873046875	-421.1455078125001	867.119567871094	-787.2224121093752	-552.8911132812501	980.5863037109377	-907.3260498046877	-570.5225219726564	951.8176879882815	-933.3091430664065	-569.7436523437501	955.297058105469	-875.7307128906252	-436.9944458007814	671.2752685546876	-1125.323974609375	-375.9516601562501	615.3804931640626	-1137.757202148438	-335.0708007812501	636.6544189453126	-1117.218627929688	-376.6988220214844	554.1562500000001	-1138.447631835938	-339.4441833496094	457.3912353515626	-1135.3798828125	-295.5888366699219	443.7996520996095	-1019.667053222656	-299.2147216796876	327.6701660156251	-1108.742553710938	-369.6368103027344	302.7427673339844	-1156.025756835938	-332.1612854003907	287.8952331542969	-1136.378295898438	-357.9996643066407	213.6101989746094	-1107.640502929688	-470.7835388183595	93.20447540283205	-1123.59228515625	-429.9039001464845	102.6614532470703	-1042.648559570313	-518.9068603515626	46.15172958374024	-1071.009765625	-306.4712829589844	63.09507369995119	-1085.192504882813	-314.7608337402344	67.79309844970705	-1133.944091796875	-359.9074096679688	46.20581436157227	-1178.333129882813	-465.2628784179689	712.1558227539064	-687.6614990234376	-407.5480041503907	681.4168701171876	-681.0363769531251	-380.5510559082032	699.4570922851564	-691.7810058593751	-396.6905212402345	597.6941528320314	-674.6830444335939	-349.6658325195313	456.5625000000001	-695.5541992187501	-302.1913757324219	446.5257873535157	-806.3594360351565	-315.9671630859376	306.4513854980469	-746.6592407226564	-393.6868896484376	245.5254058837891	-697.8998413085939	-357.0782775878907	231.6476593017579	-724.8959350585939	-371.1086120605469	191.1687774658203	-764.7017211914064	-475.0638427734376	89.4013137817383	-738.5482177734376	-423.1158142089845	107.3120651245117	-812.760437011719	-509.5751037597657	47.14782333374024	-807.4981079101565	-310.4097595214844	63.03249740600587	-745.5302734375001	-325.5347290039063	64.89310455322267	-705.8667602539064	-374.0195922851563	39.79142379760743	-667.1008300781251	-292.1609802246094	1500.371459960938	-814.912048339844	
1233	6.16	-169.1515808105469	1562.811401367188	-898.1644287109377	-336.4085388183594	1477.2822265625	-968.9822998046877	-392.0187377929689	1377.509033203125	-907.465759277344	-517.0211181640626	1081.388305664063	-904.9531250000002	-261.0349121093751	1283.731323242188	-903.3110961914065	-273.9782104492188	1333.455688476563	-1059.985595703125	-339.5390625000001	1201.098510742188	-1232.739868164063	-324.1755371093751	1155.498901367188	-1217.832275390625	-353.8240966796876	1143.035400390625	-1270.010986328125	-380.5620422363282	1060.1142578125	-1292.169799804688	-463.1062011718751	1087.202270507813	-1262.199584960938	-464.2950744628907	897.8542480468752	-1118.27783203125	-432.1013183593751	846.8933105468752	-1164.041870117188	-432.3918457031251	868.8076171875002	-1068.891967773438	-286.1388549804688	1331.044799804688	-746.6430053710939	-360.0280151367188	1203.452880859375	-580.7416381835939	-346.6590881347657	1155.547241210938	-589.0471801757814	-381.9866333007813	1148.645629882813	-540.3645019531251	-403.470672607422	1081.507446289063	-515.9588623046876	-486.4581909179689	1084.174926757813	-535.9604492187501	-456.2144470214845	893.7471923828127	-697.5738525390626	-415.312713623047	854.1165771484377	-647.1193847656251	-407.0623474121095	876.2278442382815	-746.5039672851564	-428.9617614746095	856.1429443359377	-1024.41552734375	-419.8327636718751	870.277526855469	-787.2626953125002	-552.0138549804689	983.5520019531252	-907.666198730469	-569.6441040039064	954.5833740234377	-933.6632080078127	-568.7529296875001	957.910583496094	-876.0427246093752	-436.7474670410157	673.0964965820314	-1125.537109375	-376.0812683105469	616.5480957031251	-1137.807861328125	-335.1010742187501	637.3086547851564	-1117.18896484375	-377.4923706054688	555.2182617187501	-1138.10888671875	-340.5382385253907	458.1609191894532	-1135.09814453125	-297.3489074707032	444.5990295410157	-1019.33642578125	-301.0709228515626	328.5630187988282	-1108.819702148438	-370.0990295410157	303.1956176757813	-1155.61767578125	-332.3035583496094	288.3558349609376	-1135.750244140625	-359.2330322265626	214.0596466064454	-1107.884765625	-470.8208007812501	93.27317047119142	-1123.552124023438	-430.1445312500001	102.7633285522461	-1042.651977539063	-518.9766235351564	46.12067794799805	-1071.048095703125	-306.5791015625001	63.32740402221681	-1085.01171875	-314.6066894531251	67.96162414550783	-1133.656982421875	-359.9232788085938	46.35914611816407	-1178.22607421875	-464.6163330078126	714.2604370117189	-688.1437988281251	-407.2928466796876	682.8922119140626	-681.7764892578126	-379.9379272460938	700.9086303710939	-692.4878540039064	-396.9476013183595	599.2458496093751	-675.3430175781251	-351.1573791503907	457.5263977050782	-696.2111816406251	-303.6295776367188	447.2136535644532	-807.1291503906252	-317.0924072265626	307.2556152343751	-747.1926879882814	-394.4718627929689	246.0345458984376	-698.3601684570314	-357.9141845703126	232.2181091308594	-725.4033813476564	-371.8341369628907	191.62109375	-765.0130615234376	-475.064422607422	89.45890045166017	-738.5763549804689	-423.3068847656251	107.2781066894532	-812.8704833984377	-509.575408935547	47.09856414794923	-807.5352172851565	-310.4512023925782	62.80357360839845	-745.7006225585939	-325.4903869628907	64.68340301513673	-705.9885864257814	-373.9417724609376	39.83598327636719	-667.1265258789064	-291.6691894531251	1504.020751953125	-816.1355590820315	
1234	6.165	-169.4232788085938	1566.069458007813	-898.1298828125002	-337.1560363769532	1481.161010742188	-969.085632324219	-392.7219238281251	1380.871704101563	-907.5330810546877	-516.6787109375001	1084.2734375	-905.1402587890627	-261.8257141113282	1287.663696289063	-903.5130615234377	-274.8809509277344	1337.523315429688	-1060.205444335938	-339.9306030273438	1204.850830078125	-1232.830444335938	-324.2112731933594	1159.3974609375	-1218.000854492188	-354.2331848144532	1146.912841796875	-1269.96337890625	-380.2966918945313	1063.864868164063	-1292.25048828125	-462.9711303710939	1090.530517578125	-1262.111206054688	-463.0387268066407	900.772155761719	-1118.668579101563	-430.9373779296876	850.2202148437502	-1164.598754882813	-431.2034606933595	871.8257446289065	-1069.445922851563	-287.2403259277344	1334.914428710938	-746.6659545898439	-360.5747985839844	1207.100830078125	-580.8786010742189	-347.0871276855469	1159.060424804688	-589.1702270507814	-382.4464721679688	1152.191040039063	-540.5488891601564	-403.7983398437501	1085.032836914063	-516.0942382812501	-486.7498474121095	1087.295776367188	-536.3287963867189	-455.545867919922	896.8452148437502	-697.7567749023439	-414.2996520996095	857.3367919921877	-647.0584106445314	-406.1041870117189	879.275573730469	-746.6508178710939	-427.6309509277345	859.0781860351565	-1025.009643554688	-418.8963317871095	873.595397949219	-787.443786621094	-551.1004638671876	986.2148437500002	-907.9658203125002	-568.5651245117189	957.262390136719	-934.0063476562502	-567.9733276367189	960.5220336914065	-876.3823852539065	-436.0509033203126	674.5000000000001	-1125.536254882813	-375.6622009277344	617.2396240234376	-1137.33203125	-334.9355163574219	637.9567260742189	-1117.104736328125	-378.2348022460938	556.1397705078126	-1137.727294921875	-342.0274658203126	458.8624267578126	-1134.728637695313	-298.9539794921876	445.3557434082032	-1018.984252929688	-302.4605712890626	329.2801208496094	-1108.537963867188	-371.3162231445313	303.6048889160157	-1155.3486328125	-334.5323791503907	289.0331726074219	-1136.032104492188	-359.9756469726563	214.3807525634766	-1107.628051757813	-471.0505676269532	93.35925292968751	-1123.543212890625	-430.4030151367189	102.8195495605469	-1042.608764648438	-519.0726318359376	46.08230590820313	-1071.010375976563	-306.6142883300782	63.39537429809572	-1084.890380859375	-314.5654907226563	67.99093627929689	-1133.400024414063	-359.8541870117188	46.41381072998048	-1178.0712890625	-463.9068603515626	716.3561401367189	-688.7527465820314	-406.9219970703126	684.4208374023439	-682.0884399414064	-379.5206298828126	702.1259765625001	-692.9829711914064	-397.3546447753907	600.6107177734376	-676.1093750000001	-352.7247619628907	458.3902893066407	-696.9276733398439	-305.1826782226563	447.8992614746095	-807.986755371094	-318.0276489257813	308.0934143066407	-747.5219726562501	-395.1746826171876	246.5071258544922	-698.7271118164064	-359.0092468261719	232.8531646728516	-725.9026489257814	-372.1978454589844	191.8495330810547	-765.2335815429689	-475.0873107910157	89.47342681884767	-738.6623535156251	-423.4141845703126	107.2550888061524	-812.9798583984377	-509.5504150390626	47.15353775024415	-807.4851074218752	-310.9567871093751	62.46064758300783	-746.1581420898439	-325.4175415039063	64.47846984863283	-706.1499633789064	-373.8655395507813	39.77233505249024	-667.1657104492189	-293.6376342773438	1508.112548828125	-814.854675292969	
1235	6.17	-169.9049377441407	1569.432006835938	-898.278991699219	-337.6523132324219	1484.832153320313	-968.8776855468752	-393.6518554687501	1384.3388671875	-907.5554809570315	-516.3870849609376	1087.029663085938	-905.3125610351565	-262.3836059570313	1291.492431640625	-903.6165161132815	-275.7915649414063	1341.272216796875	-1060.236450195313	-340.4852905273438	1208.668334960938	-1232.914428710938	-324.6758117675782	1163.165893554688	-1218.085693359375	-354.6133422851563	1150.66796875	-1270.262451171875	-380.3938598632813	1067.470825195313	-1292.538940429688	-462.9335327148439	1093.662841796875	-1262.188842773438	-461.6671142578126	903.830261230469	-1118.915283203125	-429.5916137695314	853.2657470703127	-1164.999145507813	-429.9944763183595	874.714538574219	-1069.64990234375	-288.0464782714844	1338.625	-746.6911621093751	-361.1809692382813	1210.599243164063	-581.0117187500001	-347.5650939941407	1162.667724609375	-589.3096313476564	-382.9635314941407	1155.561645507813	-540.6925659179689	-404.1453857421876	1088.27490234375	-516.4333496093751	-487.0183410644532	1090.266235351563	-536.7139892578126	-454.5427551269532	899.8206176757815	-697.9073486328126	-413.5597229003907	860.604919433594	-646.9533691406251	-404.9436645507814	882.3394165039065	-746.6204833984376	-426.3129882812501	862.0198974609377	-1024.996826171875	-417.6945190429689	876.5057373046877	-787.5708007812502	-550.1829833984376	988.843688964844	-908.2250976562502	-567.5179443359376	959.7628173828127	-934.358093261719	-566.9898681640626	962.9360351562502	-876.645690917969	-435.8855285644532	676.0847167968751	-1125.63623046875	-375.7762756347657	618.0928344726564	-1137.03564453125	-334.8304748535157	638.6681518554689	-1117.089477539063	-378.8979187011719	557.1480102539064	-1137.299072265625	-343.5366210937501	459.7285156250001	-1134.41455078125	-300.4191589355469	446.0696105957032	-1018.630615234375	-303.1373291015626	329.8539123535157	-1107.802734375	-373.1375427246094	304.4655456542969	-1155.34814453125	-335.1514892578126	289.5028381347657	-1135.874755859375	-360.5881652832032	214.9989776611329	-1107.348754882813	-471.1210327148439	93.43737030029298	-1123.419189453125	-430.590789794922	102.8217544555664	-1042.586791992188	-519.0306396484376	46.05732727050782	-1071.120727539063	-306.6647644042969	63.19362258911134	-1084.733154296875	-314.7407226562501	67.9691619873047	-1133.36572265625	-359.7639160156251	46.40943908691407	-1177.966064453125	-463.219940185547	718.2551269531251	-689.0721435546876	-406.5903930664064	685.8383789062501	-682.7465820312501	-379.0368652343751	703.4895629882814	-693.5255126953126	-397.8343505859376	601.8919067382814	-676.8587036132814	-354.1123352050782	459.3393554687501	-697.6172485351564	-306.7901916503907	448.7521362304689	-809.0028076171877	-319.3089599609376	308.8227844238282	-748.4922485351564	-395.8704528808595	246.9710083007813	-699.1309814453126	-359.4041748046876	233.4394531250001	-726.1705932617189	-373.3314208984376	192.2093048095704	-765.9191284179689	-475.0637207031251	89.50160980224611	-738.6999511718751	-423.509735107422	107.2281341552735	-813.0948486328127	-509.526336669922	47.16477584838868	-807.5035400390627	-310.8578796386719	62.13532638549806	-746.1890258789064	-325.2646179199219	64.32336425781251	-706.1989135742189	-373.7431945800782	39.68849182128907	-667.1965332031251	-292.9093933105469	1511.412719726563	-816.0612792968752	
